<svg width="2000" height="800" viewBox="0 0 2000 800" fill="none" xmlns="http://www.w3.org/2000/svg">
<rect width="2000" height="800" fill="#070834"/>
<path fill-rule="evenodd" clip-rule="evenodd" d="M686.411 200.085L723.643 200C726.802 199.992 729.103 200.705 730.525 202.135C731.935 203.568 732.655 205.882 732.663 209.083L732.885 307.233C732.902 312.63 732.699 317.649 732.295 322.286C731.889 326.928 730.612 332.371 728.463 338.611L716.044 373.043C715.218 375.577 714.013 377.726 712.435 379.503C710.856 381.277 708.737 382.17 706.072 382.172L672.843 382.247C670.172 382.255 667.751 381.674 665.587 380.497C663.419 379.321 661.994 377.387 661.327 374.685L649.74 333.481C649.238 331.801 648.609 330.66 647.857 330.074C647.102 329.481 646.229 329.189 645.23 329.189L642.979 329.198C641.98 329.198 641.11 329.498 640.36 330.09C639.611 330.685 638.991 331.823 638.494 333.506L626.841 374.765C626.185 377.296 624.936 379.2 623.108 380.467C621.277 381.737 619.031 382.376 616.366 382.379L583.381 382.456C580.719 382.464 578.424 381.624 576.502 379.941C574.583 378.263 573.205 376.073 572.365 373.379L559.79 338.495C557.613 332.264 556.309 326.828 555.884 322.192C555.453 317.556 555.233 312.542 555.222 307.137L555 209.496C554.992 206.298 555.697 203.975 557.108 202.534C558.516 201.102 560.806 200.377 563.974 200.369L602.454 200.281C605.616 200.273 607.908 200.989 609.33 202.416C610.749 203.846 611.463 206.165 611.471 209.366L611.685 302.457L626.105 270.548C627.426 267.683 629.172 265.655 631.337 264.465C633.498 263.281 636.166 262.68 639.331 262.677L649.828 262.653C652.99 262.644 655.653 263.228 657.824 264.405C659.988 265.584 661.742 267.6 663.087 270.462L677.652 302.3L677.438 209.212C677.43 206.008 678.135 203.692 679.549 202.251C680.954 200.818 683.246 200.094 686.411 200.085" fill="#426CFF"/>
<path fill-rule="evenodd" clip-rule="evenodd" d="M887.815 382.189L772.643 382.456C769.499 382.464 767.219 381.753 765.815 380.32C764.403 378.893 763.694 376.575 763.688 373.368L763.315 209.397C763.306 206.192 764.002 203.875 765.406 202.436C766.808 201 769.079 200.276 772.223 200.267L887.395 200C890.536 199.992 892.819 200.708 894.234 202.136C895.638 203.566 896.35 205.883 896.358 209.088L896.424 238.693C896.432 241.9 895.728 244.223 894.332 245.659C892.928 247.097 890.648 247.817 887.507 247.825L818.999 247.985L819.042 267.47L867.446 267.357C870.59 267.349 872.867 268.06 874.279 269.49C875.684 270.92 876.398 273.238 876.403 276.443L876.463 303.514C876.472 306.722 875.771 309.048 874.369 310.483C872.968 311.919 870.696 312.644 867.552 312.652L819.149 312.765L819.195 334.524L887.703 334.364C890.845 334.356 893.13 335.069 894.537 336.497C895.941 337.93 896.658 340.247 896.664 343.452L896.729 373.059C896.737 376.267 896.036 378.584 894.64 380.02C893.231 381.461 890.956 382.181 887.815 382.189" fill="#426CFF"/>
<path fill-rule="evenodd" clip-rule="evenodd" d="M1016.58 253.244L1005 291.739L1043.96 291.648L1032.21 253.208C1031.54 251.689 1030.84 250.598 1030.1 249.92C1029.35 249.253 1028.48 248.911 1027.49 248.917L1021.29 248.928C1020.29 248.933 1019.42 249.272 1018.68 249.947C1017.94 250.623 1017.23 251.725 1016.58 253.244V253.244ZM1002.71 373.239C1002.72 376.445 1002.02 378.768 1000.62 380.204C999.213 381.64 996.939 382.365 993.799 382.373L957.326 382.456C954.183 382.464 951.904 381.751 950.501 380.32C949.089 378.892 948.38 376.574 948.372 373.366L948.222 306.548C948.211 301.488 948.982 295.667 950.539 289.082C952.095 282.498 954.513 274.816 957.803 266.038L979.257 208.533C980.247 205.661 981.765 203.55 983.837 202.194C985.897 200.843 988.585 200.16 991.894 200.154L1058.64 200C1061.78 199.992 1064.39 200.659 1066.46 202.001C1068.53 203.349 1070.07 205.455 1071.06 208.318L1092.78 265.721C1096.11 274.488 1098.56 282.153 1100.16 288.732C1101.74 295.306 1102.54 301.13 1102.55 306.187L1102.7 373.008C1102.71 376.213 1102.01 378.534 1100.61 379.97C1099.2 381.409 1096.93 382.128 1093.79 382.136L1056.33 382.225C1053.01 382.233 1050.57 381.522 1049 380.089C1047.43 378.661 1046.64 376.346 1046.63 373.137L1046.55 337.707L1002.63 337.806L1002.71 373.239Z" fill="#F6BB47"/>
<path fill-rule="evenodd" clip-rule="evenodd" d="M1264.62 382.166L1137.81 382.456C1134.66 382.464 1132.37 381.753 1130.96 380.321C1129.54 378.892 1128.83 376.575 1128.82 373.364L1128.45 209.23C1128.44 206.024 1129.14 203.696 1130.55 202.256C1131.96 200.819 1134.24 200.097 1137.39 200.088L1176.01 200C1179.16 199.992 1181.45 200.709 1182.87 202.135C1184.28 203.569 1185 205.892 1185.01 209.097L1185.29 334.476L1219.41 334.396L1219.32 293.364C1219.32 290.159 1220.02 287.834 1221.43 286.397C1222.83 284.96 1225.11 284.231 1228.27 284.226L1264.39 284.143C1267.55 284.135 1269.84 284.846 1271.25 286.281C1272.66 287.712 1273.38 290.03 1273.38 293.235L1273.57 373.025C1273.58 376.236 1272.87 378.558 1271.47 379.996C1270.06 381.433 1267.77 382.158 1264.62 382.166" fill="#F6BB47"/>
<path fill-rule="evenodd" clip-rule="evenodd" d="M1435.48 382.161L1308.68 382.456C1305.52 382.464 1303.23 381.753 1301.82 380.321C1300.41 378.892 1299.69 376.57 1299.69 373.362L1299.31 209.229C1299.31 206.024 1300.01 203.702 1301.41 202.262C1302.82 200.825 1305.1 200.102 1308.26 200.094L1346.87 200C1350.03 199.995 1352.32 200.709 1353.73 202.138C1355.14 203.575 1355.86 205.892 1355.87 209.097L1356.15 334.475L1390.28 334.395L1390.19 293.362C1390.18 290.156 1390.88 287.834 1392.29 286.394C1393.69 284.957 1395.98 284.234 1399.14 284.226L1435.26 284.14C1438.41 284.132 1440.7 284.849 1442.12 286.278C1443.53 287.71 1444.24 290.032 1444.25 293.238L1444.43 373.023C1444.44 376.233 1443.74 378.556 1442.33 379.993C1440.92 381.433 1438.64 382.153 1435.48 382.161" fill="#F6BB47"/>
<path fill-rule="evenodd" clip-rule="evenodd" d="M679.325 595.181L617.564 595.321C596.474 595.368 580.812 591.188 570.585 582.771C560.356 574.355 555.225 561.367 555.184 543.81L555 465.058C554.959 447.504 560.03 434.452 570.221 425.903C580.409 417.355 596.049 413.056 617.142 413.006L678.902 412.866C682.106 412.857 684.425 413.571 685.865 415.003C687.302 416.437 688.023 418.753 688.031 421.957L688.1 452.594C688.109 455.804 687.397 458.131 685.965 459.568C684.533 461.005 682.22 461.727 679.014 461.735L628.139 461.851C622.906 461.865 619.03 462.93 616.505 465.042C613.98 467.162 612.721 470.328 612.726 474.544L612.868 534.812C612.877 539.036 614.153 542.114 616.686 544.047C619.224 545.982 623.103 546.948 628.339 546.934L679.211 546.818C682.414 546.81 684.736 547.524 686.176 548.95C687.611 550.384 688.334 552.705 688.342 555.91L688.415 586.042C688.42 589.252 687.708 591.576 686.279 593.013C684.844 594.45 682.528 595.175 679.325 595.181" fill="#DF504D"/>
<path fill-rule="evenodd" clip-rule="evenodd" d="M766.056 539.418C766.064 542.788 767.306 545.603 769.803 547.872C772.289 550.137 778.007 551.262 786.951 551.243C795.895 551.218 801.607 550.07 804.086 547.793C806.561 545.509 807.8 542.692 807.792 539.322L807.636 471.364C807.628 468.167 806.378 465.427 803.892 463.16C801.4 460.893 795.685 459.768 786.741 459.793C777.797 459.809 772.082 460.959 769.609 463.24C767.126 465.521 765.895 468.261 765.9 471.461L766.056 539.418ZM863.96 548.285C863.977 556.032 862.877 563.062 860.653 569.387C858.434 575.709 854.471 581.107 848.767 585.586C843.06 590.059 835.199 593.572 825.188 596.12C815.169 598.67 802.464 599.963 787.06 599.999C771.659 600.035 758.9 598.802 748.793 596.299C738.681 593.798 730.766 590.323 725.046 585.872C719.317 581.423 715.332 576.045 713.081 569.731C710.832 563.419 709.699 556.393 709.68 548.645L709.481 462.497C709.467 454.753 710.567 447.715 712.788 441.395C715.005 435.073 718.97 429.631 724.677 425.073C730.379 420.514 738.277 416.957 748.378 414.406C758.474 411.856 771.225 410.563 786.626 410.527C802.03 410.491 814.741 411.724 824.773 414.227C834.798 416.734 842.672 420.253 848.398 424.784C854.121 429.315 858.109 434.738 860.358 441.054C862.612 447.36 863.745 454.395 863.761 462.14L863.96 548.285Z" fill="#DF504D"/>
<path fill-rule="evenodd" clip-rule="evenodd" d="M946.346 461.299L946.543 547.368L976.188 547.299C980.175 547.285 983.123 546.271 985.022 544.242C986.922 542.207 987.874 539.087 987.866 534.866L987.724 473.355C987.715 469.139 986.746 466.055 984.842 464.122C982.926 462.187 979.976 461.219 975.991 461.23L946.346 461.299ZM983.027 595.126L899.07 595.322C895.911 595.327 893.626 594.619 892.217 593.188C890.799 591.754 890.088 589.439 890.082 586.23L889.707 422.195C889.699 418.991 890.397 416.667 891.806 415.231C893.213 413.795 895.495 413.067 898.654 413.062L982.608 412.866C1003.36 412.819 1018.77 417.004 1028.84 425.415C1038.91 433.831 1043.97 446.81 1044.01 464.362L1044.19 543.343C1044.23 560.895 1039.23 573.902 1029.2 582.362C1019.17 590.825 1003.78 595.079 983.027 595.126V595.126Z" fill="#DF504D"/>
<path fill-rule="evenodd" clip-rule="evenodd" d="M1194.43 595.052L1079.26 595.322C1076.12 595.327 1073.84 594.616 1072.43 593.186C1071.02 591.759 1070.31 589.438 1070.31 586.231L1069.93 422.262C1069.93 419.06 1070.62 416.74 1072.03 415.302C1073.43 413.866 1075.7 413.141 1078.85 413.133L1194.01 412.866C1197.16 412.857 1199.43 413.574 1200.85 415.001C1202.25 416.434 1202.96 418.752 1202.97 421.954L1203.04 451.557C1203.05 454.765 1202.34 457.088 1200.95 458.524C1199.54 459.965 1197.26 460.681 1194.12 460.69L1125.62 460.849L1125.66 480.334L1174.06 480.224C1177.2 480.216 1179.48 480.927 1180.89 482.354C1182.3 483.785 1183.01 486.105 1183.02 489.307L1183.08 516.381C1183.09 519.586 1182.39 521.914 1180.99 523.35C1179.58 524.783 1177.31 525.508 1174.17 525.516L1125.77 525.629L1125.81 547.387L1194.32 547.227C1197.46 547.219 1199.74 547.936 1201.15 549.363C1202.55 550.793 1203.27 553.114 1203.28 556.316L1203.35 585.922C1203.35 589.13 1202.65 591.45 1201.25 592.886C1199.84 594.324 1197.57 595.043 1194.43 595.052" fill="#DF504D"/>
<path fill-rule="evenodd" clip-rule="evenodd" d="M1279.38 487.307H1241.93C1238.29 487.307 1235.33 484.306 1235.33 480.604V479.465C1235.33 475.763 1238.29 472.761 1241.93 472.761H1254.39V426.374H1244.17C1240.53 426.374 1237.57 423.372 1237.57 419.67V418.531C1237.57 414.831 1240.53 411.828 1244.17 411.828H1262.11C1265.76 411.828 1268.71 414.831 1268.71 418.531V472.761H1279.38C1283.03 472.761 1285.98 475.763 1285.98 479.465V480.604C1285.98 484.306 1283.03 487.307 1279.38 487.307" fill="#606060"/>
<path fill-rule="evenodd" clip-rule="evenodd" d="M1354.57 573.153C1354.57 575.502 1353.9 577.064 1352.33 578.376C1351.67 578.925 1348.82 580.713 1339.77 580.713C1330.75 580.713 1328.01 578.968 1327.39 578.432C1325.85 577.116 1325.19 575.539 1325.19 573.153V550.16C1325.19 549.671 1325.26 549.289 1325.32 548.879C1328.5 551.483 1333.83 553.194 1339.88 553.194C1345.88 553.194 1351.15 551.51 1354.35 548.944C1354.41 549.358 1354.57 549.686 1354.57 550.16V573.153ZM1369.1 573.153V539.413C1369.1 533.063 1366.72 527.511 1362.2 523.348C1357.73 519.237 1350.39 517.239 1339.77 517.239C1334.76 517.239 1330.62 517.685 1327.1 518.597C1323.23 519.615 1320.17 521.045 1317.73 522.996C1315.09 525.109 1313.18 527.752 1312.08 530.839C1311.13 533.467 1310.66 536.35 1310.66 539.413V573.153C1310.66 576.215 1311.13 579.099 1312.08 581.72C1313.18 584.819 1315.09 587.461 1317.73 589.565C1320.17 591.514 1323.23 592.956 1327.1 593.964C1330.59 594.876 1334.73 595.322 1339.77 595.322C1350.38 595.322 1357.71 593.349 1362.18 589.297C1366.71 585.176 1369.1 579.596 1369.1 573.153V573.153Z" fill="#F6BB47"/>
<path fill-rule="evenodd" clip-rule="evenodd" d="M1275.35 573.153C1275.35 575.502 1274.68 577.064 1273.11 578.376C1272.45 578.925 1269.6 580.713 1260.54 580.713C1251.53 580.713 1248.79 578.968 1248.16 578.432C1246.62 577.116 1245.96 575.539 1245.96 573.153V550.16C1245.96 549.671 1246.04 549.289 1246.09 548.879C1249.28 551.483 1254.61 553.194 1260.66 553.194C1266.65 553.194 1271.93 551.51 1275.13 548.944C1275.19 549.358 1275.35 549.686 1275.35 550.16V573.153ZM1282.98 523.348C1278.5 519.237 1271.17 517.239 1260.54 517.239C1255.54 517.239 1251.39 517.685 1247.88 518.597C1244.01 519.615 1240.94 521.045 1238.51 522.996C1235.86 525.109 1233.96 527.752 1232.85 530.839C1231.91 533.467 1231.44 536.35 1231.44 539.413V573.153C1231.44 576.215 1231.91 579.099 1232.85 581.72C1233.96 584.819 1235.87 587.461 1238.51 589.565C1240.94 591.514 1244.01 592.956 1247.88 593.964C1251.37 594.876 1255.51 595.322 1260.54 595.322C1271.16 595.322 1278.49 593.349 1282.95 589.297C1287.49 585.176 1289.88 579.596 1289.88 573.153V539.413C1289.88 533.063 1287.5 527.511 1282.98 523.348V523.348Z" fill="#426CFF"/>
<path fill-rule="evenodd" clip-rule="evenodd" d="M1427.3 466.44C1427.3 468.789 1426.63 470.352 1425.06 471.663C1424.4 472.212 1421.55 474 1412.49 474C1403.48 474 1400.74 472.256 1400.12 471.72C1398.58 470.404 1397.92 468.826 1397.92 466.44V443.447C1397.92 442.958 1397.99 442.576 1398.05 442.166C1401.23 444.77 1406.56 446.481 1412.61 446.481C1418.61 446.481 1423.88 444.797 1427.08 442.232C1427.14 442.645 1427.3 442.973 1427.3 443.447V466.44ZM1434.93 416.635C1430.46 412.524 1423.12 410.526 1412.49 410.526C1407.49 410.526 1403.35 410.972 1399.83 411.884C1395.96 412.902 1392.9 414.334 1390.46 416.283C1387.82 418.397 1385.91 421.039 1384.81 424.127C1383.86 426.754 1383.39 429.638 1383.39 432.7V466.44C1383.39 469.503 1383.86 472.386 1384.81 475.007C1385.91 478.106 1387.82 480.749 1390.46 482.852C1392.9 484.801 1395.96 486.244 1399.83 487.251C1403.32 488.163 1407.46 488.609 1412.49 488.609C1423.11 488.609 1430.44 486.636 1434.91 482.584C1439.44 478.463 1441.83 472.883 1441.83 466.44V432.7C1441.83 426.35 1439.45 420.798 1434.93 416.635V416.635Z" fill="#DF504D"/>
<path fill-rule="evenodd" clip-rule="evenodd" d="M1358.61 487.307H1321.16C1317.51 487.307 1314.56 484.306 1314.56 480.604V479.465C1314.56 475.763 1317.51 472.761 1321.16 472.761H1333.61V426.374H1323.4C1319.75 426.374 1316.8 423.372 1316.8 419.67V418.531C1316.8 414.831 1319.75 411.828 1323.4 411.828H1336.25C1342.7 411.828 1347.93 417.142 1347.93 423.697V472.761H1358.61C1362.25 472.761 1365.21 475.763 1365.21 479.465V480.604C1365.21 484.306 1362.25 487.307 1358.61 487.307" fill="#606060"/>
<path fill-rule="evenodd" clip-rule="evenodd" d="M1437.83 595.322H1400.38C1396.73 595.322 1393.78 592.32 1393.78 588.616V587.479C1393.78 583.777 1396.73 580.776 1400.38 580.776H1412.84V534.388H1402.62C1398.97 534.388 1396.02 531.386 1396.02 527.684V526.545C1396.02 522.845 1398.97 519.842 1402.62 519.842H1415.47C1421.93 519.842 1427.16 525.155 1427.16 531.71V580.776H1437.83C1441.47 580.776 1444.43 583.777 1444.43 587.479V588.616C1444.43 592.32 1441.47 595.322 1437.83 595.322" fill="#606060"/>
</svg>
